<svg class="icon" viewBox="0 0 1024 1024" xmlns="http://www.w3.org/2000/svg" width="200" height="200"><path d="M60 512a445 445 0 1 0 891 0 445 445 0 1 0-891 0z" fill="#FFEFEB"/><path d="M496 222L345 358c-3 3-7 4-11 4H227c-29 0-52 24-52 53v200c0 29 23 52 52 52h103c4 0 8 2 11 4l156 134c21 19 55 3 55-25V247c0-29-34-44-56-25zm132 447a27 27 0 0 1-22-11 27 27 0 0 1 6-37c34-26 54-65 54-108 0-42-19-81-52-107-12-9-14-26-5-37 9-12 25-14 37-5 47 35 74 90 74 149s-28 116-76 151c-5 3-10 5-16 5z" fill="#FF5A3E"/><path d="M715 755c-7 0-15-3-20-9-10-12-8-29 3-38a256 256 0 0 0 90-195c0-75-33-146-90-195a27 27 0 0 1-3-38 27 27 0 0 1 38-3 309 309 0 0 1 109 236c0 91-40 177-109 236-5 4-11 6-18 6z" fill="#FF5A3E"/><path d="M787 337a310 310 0 0 0-54-60c-11-10-28-8-38 3s-8 28 3 38a256 256 0 0 1 77 116l4-16a385 385 0 0 0 8-81zm-141 27a27 27 0 0 0-37 5 27 27 0 0 0 5 37c33 26 52 65 52 107 0 43-20 82-54 108a27 27 0 0 0-1 42c39-24 72-56 100-93a187 187 0 0 0 9-57c0-59-27-113-74-149zM496 222L345 358c-3 3-7 4-11 4H227c-29 0-52 24-52 53v200c0 29 23 52 52 52h103c4 0 8 2 11 4l63 54c52 0 102-11 148-30V247c0-29-34-44-56-25z" fill="#FF6B50"/><path d="M695 280c-9 11-8 27 2 37a453 453 0 0 0 16-46c-7 0-14 4-18 9zm-49 84a27 27 0 0 0-37 5 27 27 0 0 0 5 37 136 136 0 0 1 19 18c11-14 22-29 31-44-5-6-11-11-18-16zM496 222L345 358c-3 3-7 4-11 4H227c-29 0-52 24-52 53v158l27 7c127 26 253-6 350-78V247c0-29-34-44-56-25z" fill="#FF7F66"/><path d="M496 222L345 358c-3 3-7 4-11 4H227c-29 0-52 24-52 53v31c147 13 287-49 377-158v-41c0-29-34-44-56-25z" fill="#FF9A7B"/></svg>